<svg width="57" height="34" viewBox="0 0 57 34" fill="none" xmlns="http://www.w3.org/2000/svg">
<path d="M16.1045 19.6233V19.6613C16.1045 20.2931 15.8432 20.8607 15.4252 21.2692C15.219 21.4845 14.9712 21.6557 14.6969 21.7724C14.4225 21.8892 14.1274 21.9491 13.8292 21.9485H13.8031C13.1871 21.9485 12.5939 21.7037 12.1583 21.2681C11.7227 20.8325 11.478 20.2417 11.478 19.6257V19.5972C11.478 18.9702 11.7392 18.405 12.1572 18.0012C12.3658 17.7856 12.6157 17.6141 12.8919 17.497C13.1681 17.3799 13.4651 17.3196 13.7651 17.3196H13.8055H13.8031C14.4111 17.3258 14.9926 17.5699 15.4228 17.9996C15.853 18.4294 16.0977 19.0106 16.1045 19.6186V19.6233ZM44.6496 19.5925C44.6496 20.2091 44.4046 20.8005 43.9686 21.2366C43.5325 21.6726 42.9411 21.9176 42.3245 21.9176C41.7078 21.9176 41.1164 21.6726 40.6804 21.2366C40.2443 20.8005 39.9993 20.2091 39.9993 19.5925V19.5521C39.9993 18.9275 40.2606 18.3622 40.6786 17.9608C41.1184 17.5303 41.7095 17.2895 42.325 17.2899C42.9404 17.2903 43.5311 17.5321 43.9703 17.9632C44.1862 18.1686 44.358 18.4159 44.4752 18.6899C44.5924 18.9639 44.6525 19.2588 44.652 19.5568V19.5972V19.5948L44.6496 19.5925ZM18.9236 19.6162C18.9376 18.9808 18.8246 18.349 18.5911 17.7579C18.3576 17.1668 18.0083 16.6283 17.5639 16.1741C17.1194 15.7198 16.5886 15.3589 16.0028 15.1126C15.4169 14.8662 14.7877 14.7394 14.1522 14.7396C13.5167 14.7397 12.8875 14.8669 12.3018 15.1135C11.7161 15.3601 11.1855 15.7213 10.7413 16.1758C10.297 16.6303 9.94805 17.1689 9.71484 17.7601C9.48164 18.3514 9.36889 18.9832 9.38323 19.6186C9.41105 20.8653 9.92583 22.0516 10.8174 22.9234C11.7089 23.7953 12.9064 24.2835 14.1534 24.2835C15.4004 24.2835 16.5979 23.7953 17.4894 22.9234C18.381 22.0516 18.8958 20.8653 18.9236 19.6186V19.6162ZM47.445 19.5925C47.4445 18.4887 47.0614 17.4193 46.361 16.5664C45.6605 15.7134 44.686 15.1297 43.6035 14.9146C42.5209 14.6995 41.3973 14.8663 40.4239 15.3867C39.4506 15.9071 38.6878 16.7489 38.2654 17.7686C37.843 18.7883 37.7873 19.9229 38.1075 20.9791C38.4278 22.0353 39.1044 22.9478 40.022 23.5612C40.9396 24.1746 42.0414 24.4509 43.1398 24.343C44.2383 24.2352 45.2653 23.7498 46.0461 22.9697C46.9082 22.1313 47.445 20.9605 47.445 19.6661V19.5925ZM21.0231 19.6162C21.0231 21.4435 20.2972 23.196 19.0051 24.4881C17.713 25.7802 15.9605 26.5061 14.1332 26.5061C12.3059 26.5061 10.5535 25.7802 9.26135 24.4881C7.96925 23.196 7.24335 21.4435 7.24335 19.6162V19.5188C7.24335 17.6473 8.02235 15.9587 9.2716 14.757L9.27398 14.7546C9.89439 14.1191 10.6358 13.6143 11.4545 13.2701C12.2731 12.9258 13.1525 12.749 14.0406 12.7501H14.1546H14.1499H14.2472C15.1337 12.7488 16.0113 12.9261 16.8278 13.2713C17.6443 13.6165 18.3829 14.1225 18.9996 14.7593L19.002 14.7617C20.2465 15.9682 21.0207 17.6545 21.0207 19.5236V19.6281V19.6233L21.0231 19.6162ZM49.5706 19.5925V19.602C49.5704 21.196 49.0175 22.7407 48.006 23.9728C46.9945 25.2049 45.5872 26.0481 44.0237 26.3588C42.4602 26.6695 40.8373 26.4285 39.4316 25.6768C38.0259 24.925 36.9244 23.7091 36.3147 22.2363C35.705 20.7634 35.6249 19.1247 36.088 17.5994C36.5512 16.0741 37.5289 14.7565 38.8545 13.8713C40.1802 12.986 41.7718 12.5879 43.3582 12.7446C44.9445 12.9013 46.4274 13.6033 47.5542 14.7308C48.7987 15.9373 49.5706 17.6236 49.5706 19.4903V19.5972V19.5925ZM25.7232 19.6661L25.7256 19.4998C25.7273 18.0242 25.4316 16.5634 24.8562 15.2046C24.2809 13.8458 23.4376 12.6168 22.3768 11.5911L22.3745 11.5887C21.349 10.5266 20.1199 9.68213 18.7606 9.10593C17.4013 8.52972 15.9397 8.23358 14.4634 8.23521L14.2876 8.23758H14.2971H14.2211C12.143 8.23758 10.1979 8.80758 8.53535 9.80033L8.58523 9.77183C5.1581 11.7906 2.89235 15.4647 2.89235 19.6661C2.89235 23.8675 5.15573 27.5416 8.5306 29.5318L8.58285 29.5603C10.2888 30.5705 12.2361 31.1006 14.2187 31.0946H14.3042H14.2995L14.4657 31.097C15.9413 31.0986 17.4021 30.8029 18.761 30.2276C20.1198 29.6522 21.3487 28.809 22.3745 27.7482L22.3768 27.7458C23.439 26.7204 24.2834 25.4912 24.8596 24.1319C25.4358 22.7726 25.732 21.3111 25.7303 19.8347L25.728 19.6613V19.6708L25.7232 19.6661ZM42.2532 5.48971C38.3107 3.75833 33.7175 2.74896 28.8867 2.74896L28.4782 2.75133H28.4996C23.5543 2.66574 18.6464 3.62223 14.0952 5.55858L14.3256 5.47071H14.366C16.342 5.47071 18.223 5.88633 19.9235 6.63208L19.8356 6.59646C21.5907 7.34458 23.0893 8.36821 24.3505 9.62696C25.6115 10.9065 26.6224 12.4103 27.3311 14.0611L27.3667 14.1537C28.0792 15.7663 28.4925 17.6473 28.4925 19.6233V19.6661C28.4925 15.821 30.0148 12.3297 32.4872 9.76471L32.4825 9.76946C33.7218 8.51571 35.1794 7.49841 36.7836 6.76746L36.8738 6.72946C38.5524 5.95295 40.3733 5.53168 42.2223 5.49208H42.239L42.2532 5.48971ZM54.1045 19.6637C54.1012 17.0226 53.1824 14.4643 51.5045 12.4246C49.8266 10.385 47.4934 8.99021 44.9025 8.47788C42.3115 7.96556 39.6231 8.3674 37.2951 9.61495C34.9672 10.8625 33.1439 12.8786 32.1357 15.3197C31.1276 17.7608 30.9969 20.476 31.7661 23.0026C32.5353 25.5293 34.1568 27.711 36.3542 29.1763C38.5516 30.6415 41.189 31.2996 43.8172 31.0383C46.4454 30.777 48.9017 29.6126 50.7676 27.7435C51.8257 26.7177 52.6666 25.4895 53.2403 24.132C53.8139 22.7745 54.1086 21.3155 54.1068 19.8418L54.1045 19.6542V19.6637ZM47.5257 5.66308H56.9996C56.2797 6.50121 55.6684 7.42686 55.1803 8.41808L55.1471 8.49408C54.6948 9.36513 54.3655 10.2947 54.1686 11.2562L54.1567 11.3275C55.9298 13.7491 56.8818 16.6743 56.8737 19.6756C56.8736 22.6014 55.9684 25.4556 54.2822 27.8467C52.596 30.2377 50.2113 32.0486 47.4553 33.0309C44.6993 34.0132 41.7069 34.1189 38.8885 33.3334C36.0701 32.5479 33.5636 30.9098 31.713 28.6436L31.694 28.6175C30.6585 29.9023 29.6063 31.3487 28.6278 32.8473L28.4996 33.054C28.0864 32.3287 27.6295 31.6292 27.1316 30.9592L27.1696 31.0138C26.4698 30.0163 25.8554 29.2128 25.3266 28.6032C22.992 31.4643 19.6332 33.3017 15.9648 33.7246C12.2963 34.1475 8.60763 33.1225 5.68324 30.8677C2.75886 28.6128 0.829555 25.306 0.305686 21.6506C-0.218182 17.9952 0.704722 14.2796 2.8781 11.2942L2.8496 11.337C2.64861 10.3293 2.30556 9.35537 1.83073 8.44421L1.85923 8.50358C1.3609 7.4763 0.730988 6.51825 -0.0146484 5.65358L-0.000398438 5.67021H9.02935C11.6638 3.94365 14.5586 2.65179 17.6031 1.84408L17.8121 1.79658C21.2362 0.859158 24.7714 0.389396 28.3215 0.400081H28.5091H28.4996H28.7537C32.3708 0.400081 35.8668 0.905955 39.18 1.8512L38.9116 1.78708C42.1843 2.6967 45.0486 4.02433 47.6326 5.74146L47.521 5.67258L47.5257 5.66308Z" fill="black"/>
</svg>
